HIERARCHY
ROOT hip
{
  OFFSET 0 0 0
  CHANNELS 6 Xposition Yposition Zposition Zrotation Yrotation Xrotation
  JOINT abdomen
  {
    OFFSET 0 20.6881 -0.73152
    CHANNELS 3 Zrotation Xrotation Yrotation
    JOINT chest
    {
      OFFSET 0 11.7043 -0.48768
      CHANNELS 3 Zrotation Xrotation Yrotation
      JOINT neck
      {
        OFFSET 0 22.1894 -2.19456
        CHANNELS 3 Zrotation Xrotation Yrotation
        JOINT head
        {
          OFFSET -0.24384 7.07133 1.2192
          CHANNELS 3 Zrotation Xrotation Yrotation
          JOINT leftEye
          {
            OFFSET 4.14528 8.04674 8.04672
            CHANNELS 3 Zrotation Xrotation Yrotation
            End Site
            {
              OFFSET 1 0 0
            }
          }
          JOINT rightEye
          {
            OFFSET -3.6576 8.04674 8.04672
            CHANNELS 3 Zrotation Xrotation Yrotation
            End Site
            {
              OFFSET 1 0 0
            }
          }
        }
      }
      JOINT rCollar
      {
        OFFSET -2.68224 19.2634 -4.8768
        CHANNELS 3 Zrotation Xrotation Yrotation
        JOINT rShldr
        {
          OFFSET -8.77824 -1.95073 1.46304
          CHANNELS 3 Zrotation Xrotation Yrotation
          JOINT rForeArm
          {
            OFFSET -28.1742 -1.7115 0.48768
            CHANNELS 3 Zrotation Xrotation Yrotation
            JOINT rHand
            {
              OFFSET -22.5879 0.773209 7.07136
              CHANNELS 3 Zrotation Xrotation Yrotation
              JOINT rThumb1
              {
                OFFSET -1.2192 -0.487915 3.41376
                CHANNELS 3 Zrotation Xrotation Yrotation
                JOINT rThumb2
                {
                  OFFSET -3.37035 -0.52449 3.41376
                  CHANNELS 3 Zrotation Xrotation Yrotation
                  End Site
                  {
                    OFFSET -1.78271 -1.18214 1.43049
                  }
                }
              }
              JOINT rIndex1
              {
                OFFSET -7.75947 0.938293 5.60832
                CHANNELS 3 Zrotation Xrotation Yrotation
                JOINT rIndex2
                {
                  OFFSET -2.54057 -0.884171 1.56538
                  CHANNELS 3 Zrotation Xrotation Yrotation
                  End Site
                  {
                    OFFSET -1.62519 -0.234802 1.16502
                  }
                }
              }
              JOINT rMid1
              {
                OFFSET -8.24714 1.18213 3.41376
                CHANNELS 3 Zrotation Xrotation Yrotation
                JOINT rMid2
                {
                  OFFSET -3.10165 -0.590103 1.0647
                  CHANNELS 3 Zrotation Xrotation Yrotation
                  End Site
                  {
                    OFFSET -2.48547 -0.328903 0.83742
                  }
                }
              }
              JOINT rRing1
              {
                OFFSET -8.82822 0.546677 1.51678
                CHANNELS 3 Zrotation Xrotation Yrotation
                JOINT rRing2
                {
                  OFFSET -2.60934 -0.819778 -0.0198488
                  CHANNELS 3 Zrotation Xrotation Yrotation
                  End Site
                  {
                    OFFSET -2.33842 -0.294052 0.168128
                  }
                }
              }
              JOINT rPinky1
              {
                OFFSET -8.27202 -0.0477905 -0.4584
                CHANNELS 3 Zrotation Xrotation Yrotation
                JOINT rPinky2
                {
                  OFFSET -1.82734 -0.647385 -0.700984
                  CHANNELS 3 Zrotation Xrotation Yrotation
                  End Site
                  {
                    OFFSET -1.69225 -0.51767 -0.607171
                  }
                }
              }
            }
          }
        }
      }
      JOINT lCollar
      {
        OFFSET 2.68224 19.2634 -4.8768
        CHANNELS 3 Zrotation Xrotation Yrotation
        JOINT lShldr
        {
          OFFSET 8.77824 -1.95073 1.46304
          CHANNELS 3 Zrotation Xrotation Yrotation
          JOINT lForeArm
          {
            OFFSET 28.1742 -1.7115 0.48768
            CHANNELS 3 Zrotation Xrotation Yrotation
            JOINT lHand
            {
              OFFSET 22.5879 0.773209 7.07136
              CHANNELS 3 Zrotation Xrotation Yrotation
              JOINT lThumb1
              {
                OFFSET 1.2192 -0.487915 3.41376
                CHANNELS 3 Zrotation Xrotation Yrotation
                JOINT lThumb2
                {
                  OFFSET 3.37035 -0.52449 3.41376
                  CHANNELS 3 Zrotation Xrotation Yrotation
                  End Site
                  {
                    OFFSET 1.78271 -1.18214 1.43049
                  }
                }
              }
              JOINT lIndex1
              {
                OFFSET 7.75947 0.938293 5.60832
                CHANNELS 3 Zrotation Xrotation Yrotation
                JOINT lIndex2
                {
                  OFFSET 2.54057 -0.884171 1.56538
                  CHANNELS 3 Zrotation Xrotation Yrotation
                  End Site
                  {
                    OFFSET 1.62519 -0.234802 1.16502
                  }
                }
              }
              JOINT lMid1
              {
                OFFSET 8.24714 1.18213 3.41376
                CHANNELS 3 Zrotation Xrotation Yrotation
                JOINT lMid2
                {
                  OFFSET 3.10165 -0.590103 1.0647
                  CHANNELS 3 Zrotation Xrotation Yrotation
                  End Site
                  {
                    OFFSET 2.48547 -0.328903 0.83742
                  }
                }
              }
              JOINT lRing1
              {
                OFFSET 8.82822 0.546677 1.51678
                CHANNELS 3 Zrotation Xrotation Yrotation
                JOINT lRing2
                {
                  OFFSET 2.60934 -0.819778 -0.0198488
                  CHANNELS 3 Zrotation Xrotation Yrotation
                  End Site
                  {
                    OFFSET 2.33842 -0.294052 0.168128
                  }
                }
              }
              JOINT lPinky1
              {
                OFFSET 8.27202 -0.0477905 -0.4584
                CHANNELS 3 Zrotation Xrotation Yrotation
                JOINT lPinky2
                {
                  OFFSET 1.82734 -0.647385 -0.700984
                  CHANNELS 3 Zrotation Xrotation Yrotation
                  End Site
                  {
                    OFFSET 1.69225 -0.51767 -0.607171
                  }
                }
              }
            }
          }
        }
      }
    }
  }
  JOINT rButtock
  {
    OFFSET -8.77824 4.35084 1.2192
    CHANNELS 3 Zrotation Xrotation Yrotation
    JOINT rThigh
    {
      OFFSET 0 -1.70687 -2.19456
      CHANNELS 3 Zrotation Xrotation Yrotation
      JOINT rShin
      {
        OFFSET 0 -36.8199 0.73152
        CHANNELS 3 Zrotation Xrotation Yrotation
        JOINT rFoot
        {
          OFFSET 0.73152 -45.1104 -5.12064
          CHANNELS 3 Zrotation Xrotation Yrotation
          End Site
          {
            OFFSET -1.1221 -3.69964 12.103
          }
        }
      }
    }
  }
  JOINT lButtock
  {
    OFFSET 8.77824 4.35084 1.2192
    CHANNELS 3 Zrotation Xrotation Yrotation
    JOINT lThigh
    {
      OFFSET 0 -1.70687 -2.19456
      CHANNELS 3 Zrotation Xrotation Yrotation
      JOINT lShin
      {
        OFFSET 0 -36.8199 0.73152
        CHANNELS 3 Zrotation Xrotation Yrotation
        JOINT lFoot
        {
          OFFSET -0.73152 -45.1104 -5.12064
          CHANNELS 3 Zrotation Xrotation Yrotation
          End Site
          {
            OFFSET 1.1221 -3.69964 12.103
          }
        }
      }
    }
  }
}
MOTION
Frames:	4
Frame Time:	0.03333
-6.0475 61.8479 36.1665 -3.198558 39.223897 -3.649218 -0.419074 16.54822 6.868529 5.087586 -11.639478 -10.050556 -12.91113 36.453885 -116.880737 42.622858 27.347875 57.435617 -0.002304 0.0 -0.002173 0.003048 -0.0 -0.001259 -16.634024 46.559388 18.608313 -118.885738 23.419256 119.618469 -178.720067 49.784078 -85.954435 -18.014611 69.468776 14.229088 -173.96993 -11.637205 89.8813 -103.267198 14.435025 43.842219 5.970421 -10.264616 -2.989012 3.281047 12.986064 2.200074 168.854281 -69.716701 134.332721 17.807335 -41.681442 0.11914 0.004737 1.243402 0.388906 -156.674474 -36.824539 176.215774 -8.765352 -18.561723 -8.280136 -118.347726 -39.72941 -117.4631 1.335973 7.325916 -1.71954 98.231006 1.962763 176.508372 -93.598803 -46.428832 137.321751 26.688305 -3.055643 -5.970932 14.140405 13.085259 -3.746958 55.162724 22.591495 -54.079478 158.910527 -31.062132 -122.643694 -131.254633 -69.85733 -73.467485 153.145809 14.045951 -138.738626 0.166711 9.626314 -1.923459 0.11452 -5.156781 1.625957 153.884266 12.13707 -170.225587 1.599803 -4.007587 1.48487 1.528377 -10.366511 3.573241 -0.000665 -0.00021 -0.001158 -57.734975 -46.36033 -153.36399 -72.236099 -14.921411 34.221665 117.68255 37.812096 -20.749366 179.993088 75.749321 0.004253 -146.777059 29.686507 -15.842117 -83.773445 76.738015 60.135173 61.118757 15.615577 32.863979
-6.1404 61.4826 36.4581 -3.383603 39.291578 -3.409925 -0.036023 16.460266 -0.92325 6.189375 -10.917728 -2.588819 6.927939 26.644114 78.868949 -40.399139 4.091849 -129.217171 -0.002586 0.0 -0.002527 -0.002151 -0.0 0.004509 0.925892 -5.958262 -1.275105 140.757341 -70.598991 86.023761 172.097181 -49.072985 42.7876 138.5335 -47.919555 131.488777 -170.173569 -7.857654 89.942924 99.546611 -64.964838 74.499084 6.746564 -11.665837 -3.314859 -4.713242 22.367843 6.07875 -130.733383 46.243486 119.952821 14.635377 -33.11401 -0.889288 -0.001398 3.061328 0.963025 11.181372 -23.244292 -2.804667 -145.736636 13.870363 -142.320859 -175.665353 74.368849 -140.101694 153.876789 -75.325143 178.619871 63.33988 -23.396134 53.000568 -142.15339 -42.212141 92.989285 21.687027 -23.088825 2.474844 6.791208 6.541202 -1.421086 -160.536181 -78.903396 -82.031235 136.899027 7.246993 -113.855412 -177.154054 -46.022249 -112.861386 162.922149 -13.762952 -144.184563 -88.281804 -78.055311 -59.496853 -0.001285 0.130283 -0.039756 -9.064087 14.2076 -1.891749 10.397984 -21.213694 9.849826 -166.189555 84.799962 125.17471 -0.002888 0.000718 -0.001857 -58.267836 -45.151545 -76.521104 -65.413295 60.764563 -43.264201 47.181447 -35.144068 138.512195 -179.97893 75.749692 -0.014759 -145.23397 27.285987 -114.399731 -100.406445 -25.14915 -34.001627 62.201043 1.005167 131.898149
-6.2119 61.2251 36.7012 -3.502567 39.242843 -3.380631 -0.001136 16.519839 -0.00215 5.995762 -10.966186 -3.654662 4.153615 37.864436 149.372476 -22.64154 46.577144 167.915973 0.002534 0.0 2.2e-05 0.002844 -0.0 -0.001575 0.341012 -2.098189 -0.459883 -148.324586 -43.873167 146.08001 21.107488 -88.077456 -109.083591 130.572946 -53.007642 123.892278 64.863281 -46.437097 21.217495 -156.409081 -40.468187 133.277173 16.197473 -29.110412 -5.826105 24.778197 -15.063449 -2.522924 16.58723 -48.783221 -2.24705 2.196009 2.56445 0.405006 -0.170757 -6.615947 -2.091636 -142.374884 56.926771 157.186816 9.940222 32.35989 8.607161 -83.628895 -54.039005 -82.584271 11.018763 37.648947 -12.670293 -70.937072 13.25428 -25.607417 8.335303 2.639262 -112.051285 25.162432 -69.670916 27.944453 -15.566735 -15.448465 0.28958 -24.292822 -71.914245 31.500742 141.491277 0.214591 -116.647079 160.02748 -9.036381 -118.979076 160.907034 -7.390192 -143.354022 68.221455 63.577804 -60.884771 145.109713 -0.873235 178.853677 -12.161577 48.336494 3.375109 3.302988 -7.951537 3.080617 -29.920917 76.641158 -5.33792 -0.002445 -0.000339 -0.002483 -61.765382 -44.519825 48.269235 80.481484 -11.486852 153.777759 159.343125 -15.489239 -118.61808 0.001922 -0.001938 0.00079 39.095432 -35.4949 -0.906047 -92.801764 45.388783 33.701991 -174.565479 -15.962483 -89.802447
-6.2843 61.027100000000004 36.8781 -3.412525 39.279538 -3.239152 -0.140967 16.616688 0.236352 6.07781 -10.989278 -4.010214 7.823626 28.482639 88.63822 -40.933201 10.712301 -137.172659 0.001671 -0.0 -0.002645 -0.003348 -0.0 0.00337 -156.773741 -12.74217 163.704564 -29.523162 -17.724517 -20.570129 12.508658 -43.735975 -119.331747 138.320794 -48.212928 131.03736 -133.25042 24.0184 78.760837 138.233048 -43.983813 74.151111 158.366738 -70.385044 101.374041 -63.400696 55.575093 51.731398 -0.188738 0.548323 0.106076 160.898916 -68.839028 127.382365 -0.008813 -0.947464 -0.297445 -155.906976 -10.895995 173.155873 -147.554075 19.983174 -143.894961 -166.512558 63.79849 -145.612458 0.536319 -74.584763 19.628383 -106.650054 35.936322 96.406008 6.318623 20.07913 -114.244013 23.291614 -66.673237 24.725197 170.19972 -7.882905 -89.94277 -163.85059 -30.906362 -97.6639 -21.052182 -37.524178 5.925406 30.292138 43.358411 -24.4335 133.263668 44.11207 -122.247922 163.911746 -7.194934 -143.292575 0.891658 -16.381613 5.320536 -10.32874 15.266631 -1.828123 158.150788 60.166247 150.788075 2.778569 -10.088108 5.163586 1.7e-05 0.001607 5.3e-05 -59.844142 -44.637971 -65.290084 -4.81533 78.373526 121.763791 6.189634 68.046536 -104.472377 -0.000264 6e-06 -0.000286 41.11612 -35.893861 -55.48576 -94.561476 -11.200774 18.45273 -175.417625 -0.676354 -96.739603
